<svg xmlns="http://www.w3.org/2000/svg" viewBox="0 0 256 256" role="img" aria-label="Claude Sessions Viewer icon">
  <defs>
    <linearGradient id="bg" x1="36" y1="22" x2="220" y2="238" gradientUnits="userSpaceOnUse">
      <stop offset="0" stop-color="#30302f"/>
      <stop offset="1" stop-color="#1b1a19"/>
    </linearGradient>
    <linearGradient id="claude" x1="64" y1="52" x2="182" y2="184" gradientUnits="userSpaceOnUse">
      <stop offset="0" stop-color="#f1a07c"/>
      <stop offset="1" stop-color="#d36f4d"/>
    </linearGradient>
  </defs>
  <rect width="256" height="256" rx="52" fill="url(#bg)"/>
  <rect x="12" y="12" width="232" height="232" rx="44" fill="none" stroke="#3f3b38" stroke-width="2"/>
  <g transform="translate(128 112)" fill="none" stroke="url(#claude)" stroke-width="18" stroke-linecap="round">
    <path d="M0 -72V-28"/>
    <path d="M0 28V72"/>
    <path d="M-72 0H-28"/>
    <path d="M28 0H72"/>
    <path d="M-51 -51L-20 -20"/>
    <path d="M20 20L51 51"/>
    <path d="M51 -51L20 -20"/>
    <path d="M-20 20L-51 51"/>
  </g>
  <circle cx="128" cy="112" r="13" fill="#f4b08e"/>
  <g transform="translate(156 162)">
    <rect x="0" y="0" width="66" height="48" rx="15" fill="#24211f" stroke="#4a403a" stroke-width="2"/>
    <path d="M19 16l12 8-12 8" fill="none" stroke="#f0a37f" stroke-width="5" stroke-linecap="round" stroke-linejoin="round"/>
    <path d="M38 33h14" fill="none" stroke="#f6d5c5" stroke-width="5" stroke-linecap="round"/>
  </g>
</svg>
